<svg width="64" height="64" xmlns="http://www.w3.org/2000/svg">

 <g>
  <title>background</title>
  <rect fill="none" id="canvas_background" height="402" width="582" y="-1" x="-1"/>
 </g>
 <g>
  <title>Layer 1</title>
  <path stroke="null" fill="#ffffff" id="svg_1" d="m32,0.036005c-17.624874,0 -31.963995,14.339121 -31.963995,31.963995c0,17.624874 14.339121,31.963995 31.963995,31.963995c17.624874,0 31.963995,-14.339121 31.963995,-31.963995c0,-17.624874 -14.339121,-31.963995 -31.963995,-31.963995zm7.949154,33.089288l-5.200297,0c0,8.308373 0,18.537726 0,18.537726l-7.705813,0c0,0 0,-10.130215 0,-18.537726l-3.662997,0l0,-6.550907l3.662997,0l0,-4.237231c0,-3.034687 1.442023,-7.776626 7.776626,-7.776626l5.70758,0.021888l0,6.359066c0,0 -3.469869,0 -4.14453,0c-0.674661,0 -1.632577,0.33733 -1.632577,1.784504l0,3.849688l5.871095,0l-0.672086,6.549619z"/>
 </g>
</svg>