<svg width="512" height="512" xmlns="http://www.w3.org/2000/svg">

 <g>
  <title>background</title>
  <rect fill="none" id="canvas_background" height="402" width="582" y="-1" x="-1"/>
 </g>
 <g>
  <title>Layer 1</title>
  <circle stroke="null" fill="#ffffff" id="svg_2" r="255.426941" cy="255.999997" cx="255.426945"/>
  <path stroke="null" id="Shape" fill="#020202" d="m395.364479,116.635529l-278.728943,0c-19.164792,0 -34.841118,15.685036 -34.841118,34.841118l0,209.046707c0,19.156082 15.676325,34.841118 34.841118,34.841118l278.728943,0c19.156082,0 34.841118,-15.685036 34.841118,-34.841118l0,-209.046707c0,-19.156082 -15.685036,-34.841118 -34.841118,-34.841118l0,0zm0,243.887825l-34.841118,0l0,-153.297652l-104.523354,66.194858l-104.523354,-66.194858l0,153.297652l-34.841118,0l0,-209.046707l20.907937,0l118.456534,73.169614l118.456534,-73.169614l20.907937,0l0,209.046707l0,0z"/>
 </g>
</svg>