<svg width="150" height="150" xmlns="http://www.w3.org/2000/svg">

 <g>
  <title>background</title>
  <rect fill="none" id="canvas_background" height="152" width="152" y="-1" x="-1"/>
 </g>
 <g>
  <title>Layer 1</title>
  <g id="svg_30">
   <path fill="#ffffff" id="svg_6" d="m78.082202,141.950003l-3.6,-1.2c0,0 0.4,-18.2 -6.1,-19.5c-4.3,-5 0.7,-213.9 16.3,-0.7c0,0 -5.4,2.7 -6.3,7.3c-1,4.5 -0.3,14.1 -0.3,14.1l0,0l0,0z" class="st2"/>
   <path fill="#a6a385" id="svg_7" d="m78.082202,141.950003l-3.6,-1.2c0,0 0.4,-18.2 -6.1,-19.5c-4.3,-5 0.7,-213.9 16.3,-0.7c0,0 -5.4,2.7 -6.3,7.3c-1,4.5 -0.3,14.1 -0.3,14.1l0,0l0,0z" class="st3"/>
   <path fill="#ffffff" id="svg_8" d="m79.982202,124.350003c0,0 31.2,-20.5 23.9,-63.2c-7,-31 -23.7,-41.2 -25.5,-45.1c-2,-2.8 -3.9,-7.7 -3.9,-7.7l1.3,86.3c0.1,0.2 -2.6,26.5 4.2,29.7" class="st2"/>
   <path fill="#499d4a" id="svg_9" d="m79.982202,124.350003c0,0 31.2,-20.5 23.9,-63.2c-7,-31 -23.7,-41.2 -25.5,-45.1c-2,-2.8 -3.9,-7.7 -3.9,-7.7l1.3,86.3c0.1,0.2 -2.6,26.5 4.2,29.7" class="st4"/>
   <path fill="#ffffff" id="svg_10" d="m72.682202,125.550003c0,0 -29.3,-20 -27.6,-55.2c1.7,-35.2 22.3,-52.5 26.3,-55.7c2.7,-2.8 2.8,-3.8 3,-6.6c1.8,3.9 1.5,58.5 1.7,65c0.8,24.7 -1.4,47.8 -3.4,52.5l0,0l0,0z" class="st2"/>
   <path fill="#58aa50" id="svg_11" d="m72.682202,125.550003c0,0 -29.3,-20 -27.6,-55.2c1.7,-35.2 22.3,-52.5 26.3,-55.7c2.7,-2.8 2.8,-3.8 3,-6.6c1.8,3.9 1.5,58.5 1.7,65c0.8,24.7 -1.4,47.8 -3.4,52.5l0,0l0,0z" class="st5"/>
  </g>
 </g>
</svg>